<?xml version="1.0" encoding="utf-8"?>
<!-- Generator: Adobe Illustrator 16.0.4, SVG Export Plug-In . SVG Version: 6.00 Build 0)  -->
<!DOCTYPE svg PUBLIC "-//W3C//DTD SVG 1.1//EN" "http://www.w3.org/Graphics/SVG/1.1/DTD/svg11.dtd">
<svg version="1.1" id="Layer_1" xmlns="http://www.w3.org/2000/svg" xmlns:xlink="http://www.w3.org/1999/xlink" x="0px" y="0px"
	 width="583.482px" height="633.6px" viewBox="320.259 0 583.482 633.6" enable-background="new 320.259 0 583.482 633.6"
	 xml:space="preserve">
<g>
	<path d="M903.741,194.496L612,0L320.259,194.496H612H903.741z M555.68,107.547c0-31.104,25.211-56.321,56.32-56.321
		s56.32,25.211,56.32,56.321c0,31.097-25.211,56.321-56.32,56.321S555.68,138.645,555.68,107.547z"/>
	<path d="M867.271,218.808H356.729c-6.716,0-12.159,5.436-12.159,12.152c0,6.716,5.442,12.159,12.159,12.159h510.542
		c6.716,0,12.158-5.443,12.158-12.159C879.43,224.244,873.987,218.808,867.271,218.808z"/>
	<path d="M867.271,609.289H356.729c-6.716,0-12.159,5.442-12.159,12.158c0,6.717,5.442,12.152,12.159,12.152h510.542
		c6.716,0,12.158-5.436,12.158-12.152C879.43,614.731,873.987,609.289,867.271,609.289z"/>
	<path d="M453.98,291.741c6.723,0,12.152-5.437,12.152-12.152c0-6.716-5.43-12.159-12.152-12.159h-97.251
		c-6.716,0-12.159,5.443-12.159,12.159c0,6.716,5.442,12.152,12.159,12.152h12.159v267.43h-12.159
		c-6.716,0-12.159,5.437-12.159,12.152c0,6.717,5.442,12.165,12.159,12.165h97.251c6.723,0,12.152-5.448,12.152-12.165
		c0-6.716-5.43-12.152-12.152-12.152h-12.152v-267.43H453.98z"/>
	<path d="M551.219,559.171c-6.716,0-12.159,5.437-12.159,12.152c0,6.717,5.443,12.165,12.159,12.165h97.251
		c6.717,0,12.152-5.448,12.152-12.165c0-6.716-5.436-12.152-12.152-12.152h-12.158v-267.43h12.158
		c6.717,0,12.152-5.437,12.152-12.152c0-6.716-5.436-12.159-12.152-12.159h-97.251c-6.716,0-12.159,5.443-12.159,12.159
		c0,6.716,5.443,12.152,12.159,12.152h12.159v267.43H551.219z"/>
	<path d="M745.715,559.171c-6.716,0-12.158,5.437-12.158,12.152c0,6.717,5.442,12.165,12.158,12.165h97.238
		c6.717,0,12.159-5.448,12.159-12.165c0-6.716-5.442-12.152-12.159-12.152h-12.152v-267.43h12.152
		c6.717,0,12.159-5.437,12.159-12.152c0-6.716-5.442-12.159-12.159-12.159h-97.238c-6.716,0-12.158,5.443-12.158,12.159
		c0,6.716,5.442,12.152,12.158,12.152h12.152v267.43H745.715z"/>
</g>
</svg>
